<svg xmlns="http://www.w3.org/2000/svg" width="500" height="250">
  
<path fill="#FFF" 
      stroke="#000" 
      stroke-width="3" 
      stroke-miterlimit="10" d="M0-.432h500v250.201H0z"/>
  
<g fill="none" 
   stroke="#000" 
   stroke-width="3" 
   stroke-miterlimit="10">
  <path d="M-1.952 250l250-250M500 0L249.98 250.021M250 125L375.432-.432M250 125L125.231 249.769"/>
</g>
  
  <path d="M100.036 112.819l1.084-11.382h-.542l-4.12 10.407-19.729 34.255h-2.71l-20.921-34.363-3.903-10.298h-.542l1.518 11.274v51.058h-8.455V87.887h6.721l23.74 38.808 3.578 8.456h.217l3.36-8.673 22.656-38.591h7.046v75.882h-8.997v-50.95zM129.52 87.887h8.998v75.882h-8.998V87.887zM172.662 114.12l-5.854-10.949h-.434l1.084 10.949v49.648h-8.455V86.694h4.77l36.315 50.624 5.637 10.406h.542l-1.192-10.406V87.887h8.455v77.074h-4.77l-36.098-50.841zM234.016 87.887h8.998v75.882h-8.998V87.887zM321.821 112.819l1.084-11.382h-.542l-4.119 10.407-19.729 34.255h-2.71l-20.922-34.363-3.902-10.298h-.542l1.518 11.274v51.058H263.5V87.887h6.722l23.74 38.808 3.577 8.456h.217l3.36-8.673 22.656-38.591h7.046v75.882h-8.997v-50.95zM385.274 142.738h-27.829l-7.55 21.03h-8.997l28.727-77.074h4.119l28.836 77.074h-9.54l-7.766-21.03zm-24.916-7.804h22.22l-8.413-23.09-2.697-11.491h-.108l-2.696 11.708-8.306 22.873zM457.539 163.769H412.66V87.887h8.998v67.86h35.881v8.022z"/>
</svg>