<svg xmlns="http://www.w3.org/2000/svg" width="500" height="500">

  <path fill="none" stroke="#000" stroke-width="5" stroke-miterlimit="10" d="M372.953 37.038L495.908 250 372.953 460l-245.908 2.963L4.092 250 106.197 73.149h245.907L454.211 250 352.104 426.852H147.895L45.79 250l75.242-130.323h204.21l75.243 130.324-75.243 130.323H174.758L99.516 250.001l55.596-96.295h150.485l55.596 96.295-55.596 96.296H194.404l-55.596-96.296 32.341-56.017h111.193l32.343 56.018-32.343 56.018h-64.684L188.444 250H250"/>

  <path fill="none" stroke="#000" stroke-width="5" stroke-miterlimit="10" d="M372.953 37.038L495.908 250 372.953 460l-245.908 2.963L4.092 250 106.197 73.149h245.907L454.211 250 352.104 426.852H147.895L45.79 250l75.242-130.323h204.21l75.243 130.324-75.243 130.323H174.758L99.516 250.001l55.596-96.295h150.485l55.596 96.295-55.596 96.296H194.404l-55.596-96.296 32.341-56.017h111.193l32.343 56.018-32.343 56.018h-64.684L188.444 250H250"/>
  
</svg>